<mxfile host="app.diagrams.net" agent="Mozilla/5.0 (Windows NT 10.0; Win64; x64) AppleWebKit/537.36 (KHTML, like Gecko) Chrome/128.0.0.0 YaBrowser/24.10.0.0 Safari/537.36" version="25.0.3">
  <diagram name="Страница — 1" id="2FzaKCn47dp6pUSmrq4K">
    <mxGraphModel dx="1980" dy="1130" grid="1" gridSize="10" guides="1" tooltips="1" connect="1" arrows="1" fold="1" page="1" pageScale="1" pageWidth="827" pageHeight="1169" math="0" shadow="0">
      <root>
        <mxCell id="0" />
        <mxCell id="1" parent="0" />
        <mxCell id="Qzv4NTKDpiM6r3iTXVnp-3" style="edgeStyle=orthogonalEdgeStyle;rounded=0;orthogonalLoop=1;jettySize=auto;html=1;entryX=0.5;entryY=0;entryDx=0;entryDy=0;" edge="1" parent="1" source="Qzv4NTKDpiM6r3iTXVnp-1" target="Qzv4NTKDpiM6r3iTXVnp-2">
          <mxGeometry relative="1" as="geometry" />
        </mxCell>
        <mxCell id="Qzv4NTKDpiM6r3iTXVnp-1" value="начало" style="ellipse;whiteSpace=wrap;html=1;" vertex="1" parent="1">
          <mxGeometry x="460" y="210" width="120" height="80" as="geometry" />
        </mxCell>
        <mxCell id="Qzv4NTKDpiM6r3iTXVnp-37" style="edgeStyle=orthogonalEdgeStyle;rounded=0;orthogonalLoop=1;jettySize=auto;html=1;entryX=0.5;entryY=0;entryDx=0;entryDy=0;" edge="1" parent="1" source="Qzv4NTKDpiM6r3iTXVnp-2" target="Qzv4NTKDpiM6r3iTXVnp-8">
          <mxGeometry relative="1" as="geometry" />
        </mxCell>
        <mxCell id="Qzv4NTKDpiM6r3iTXVnp-2" value="int main()" style="shape=process;whiteSpace=wrap;html=1;backgroundOutline=1;" vertex="1" parent="1">
          <mxGeometry x="460" y="330" width="120" height="60" as="geometry" />
        </mxCell>
        <mxCell id="Qzv4NTKDpiM6r3iTXVnp-4" value="" style="endArrow=none;dashed=1;html=1;dashPattern=1 3;strokeWidth=2;rounded=0;" edge="1" parent="1">
          <mxGeometry width="50" height="50" relative="1" as="geometry">
            <mxPoint x="520" y="310" as="sourcePoint" />
            <mxPoint x="680" y="310" as="targetPoint" />
          </mxGeometry>
        </mxCell>
        <mxCell id="Qzv4NTKDpiM6r3iTXVnp-7" value="&lt;div style=&quot;background-color: rgb(255, 255, 255); font-family: Consolas, &amp;quot;Courier New&amp;quot;, monospace; line-height: 19px; white-space-collapse: preserve;&quot;&gt;&lt;div style=&quot;&quot;&gt;&lt;font style=&quot;font-size: 10px;&quot;&gt;#include &amp;lt;iostream&amp;gt;&lt;/font&gt;&lt;/div&gt;&lt;div style=&quot;&quot;&gt;&lt;font style=&quot;font-size: 10px;&quot;&gt;#include &amp;lt;math.h&amp;gt;&lt;/font&gt;&lt;/div&gt;&lt;div style=&quot;&quot;&gt;&lt;font style=&quot;font-size: 10px;&quot;&gt;#include &amp;lt;ctime&amp;gt;&lt;/font&gt;&lt;/div&gt;&lt;div style=&quot;&quot;&gt;&lt;font style=&quot;font-size: 10px;&quot;&gt;using namespace std;&lt;/font&gt;&lt;/div&gt;&lt;/div&gt;" style="strokeWidth=2;html=1;shape=mxgraph.flowchart.annotation_2;align=left;labelPosition=right;pointerEvents=1;" vertex="1" parent="1">
          <mxGeometry x="660" y="260" width="50" height="100" as="geometry" />
        </mxCell>
        <mxCell id="Qzv4NTKDpiM6r3iTXVnp-35" style="edgeStyle=orthogonalEdgeStyle;rounded=0;orthogonalLoop=1;jettySize=auto;html=1;entryX=0.5;entryY=0;entryDx=0;entryDy=0;" edge="1" parent="1" source="Qzv4NTKDpiM6r3iTXVnp-8" target="Qzv4NTKDpiM6r3iTXVnp-9">
          <mxGeometry relative="1" as="geometry" />
        </mxCell>
        <mxCell id="Qzv4NTKDpiM6r3iTXVnp-8" value="int n;" style="rounded=0;whiteSpace=wrap;html=1;" vertex="1" parent="1">
          <mxGeometry x="460" y="420" width="120" height="60" as="geometry" />
        </mxCell>
        <mxCell id="Qzv4NTKDpiM6r3iTXVnp-34" style="edgeStyle=orthogonalEdgeStyle;rounded=0;orthogonalLoop=1;jettySize=auto;html=1;" edge="1" parent="1" source="Qzv4NTKDpiM6r3iTXVnp-9" target="Qzv4NTKDpiM6r3iTXVnp-10">
          <mxGeometry relative="1" as="geometry" />
        </mxCell>
        <mxCell id="Qzv4NTKDpiM6r3iTXVnp-9" value="float s,x;" style="rounded=0;whiteSpace=wrap;html=1;" vertex="1" parent="1">
          <mxGeometry x="460" y="510" width="120" height="60" as="geometry" />
        </mxCell>
        <mxCell id="Qzv4NTKDpiM6r3iTXVnp-33" style="edgeStyle=orthogonalEdgeStyle;rounded=0;orthogonalLoop=1;jettySize=auto;html=1;entryX=0.5;entryY=0;entryDx=0;entryDy=0;" edge="1" parent="1" source="Qzv4NTKDpiM6r3iTXVnp-10" target="Qzv4NTKDpiM6r3iTXVnp-11">
          <mxGeometry relative="1" as="geometry" />
        </mxCell>
        <mxCell id="Qzv4NTKDpiM6r3iTXVnp-10" value="s=0;" style="rounded=0;whiteSpace=wrap;html=1;" vertex="1" parent="1">
          <mxGeometry x="460" y="590" width="120" height="60" as="geometry" />
        </mxCell>
        <mxCell id="Qzv4NTKDpiM6r3iTXVnp-32" style="edgeStyle=orthogonalEdgeStyle;rounded=0;orthogonalLoop=1;jettySize=auto;html=1;" edge="1" parent="1" source="Qzv4NTKDpiM6r3iTXVnp-11" target="Qzv4NTKDpiM6r3iTXVnp-12">
          <mxGeometry relative="1" as="geometry" />
        </mxCell>
        <mxCell id="Qzv4NTKDpiM6r3iTXVnp-11" value="cout&amp;lt;&amp;lt;&quot;X = &quot;;" style="rounded=0;whiteSpace=wrap;html=1;" vertex="1" parent="1">
          <mxGeometry x="460" y="680" width="120" height="60" as="geometry" />
        </mxCell>
        <mxCell id="Qzv4NTKDpiM6r3iTXVnp-31" style="edgeStyle=orthogonalEdgeStyle;rounded=0;orthogonalLoop=1;jettySize=auto;html=1;" edge="1" parent="1" source="Qzv4NTKDpiM6r3iTXVnp-12" target="Qzv4NTKDpiM6r3iTXVnp-13">
          <mxGeometry relative="1" as="geometry" />
        </mxCell>
        <mxCell id="Qzv4NTKDpiM6r3iTXVnp-12" value="cin&amp;gt;&amp;gt;x;" style="rounded=0;whiteSpace=wrap;html=1;" vertex="1" parent="1">
          <mxGeometry x="460" y="770" width="120" height="60" as="geometry" />
        </mxCell>
        <mxCell id="Qzv4NTKDpiM6r3iTXVnp-30" style="edgeStyle=orthogonalEdgeStyle;rounded=0;orthogonalLoop=1;jettySize=auto;html=1;entryX=0.5;entryY=0;entryDx=0;entryDy=0;" edge="1" parent="1" source="Qzv4NTKDpiM6r3iTXVnp-13" target="Qzv4NTKDpiM6r3iTXVnp-14">
          <mxGeometry relative="1" as="geometry" />
        </mxCell>
        <mxCell id="Qzv4NTKDpiM6r3iTXVnp-13" value="cout&amp;lt;&amp;lt;&quot;N = &quot;;" style="rounded=0;whiteSpace=wrap;html=1;" vertex="1" parent="1">
          <mxGeometry x="460" y="860" width="120" height="60" as="geometry" />
        </mxCell>
        <mxCell id="Qzv4NTKDpiM6r3iTXVnp-28" style="edgeStyle=orthogonalEdgeStyle;rounded=0;orthogonalLoop=1;jettySize=auto;html=1;entryX=0.5;entryY=0;entryDx=0;entryDy=0;" edge="1" parent="1" source="Qzv4NTKDpiM6r3iTXVnp-14" target="Qzv4NTKDpiM6r3iTXVnp-15">
          <mxGeometry relative="1" as="geometry" />
        </mxCell>
        <mxCell id="Qzv4NTKDpiM6r3iTXVnp-14" value="cin&amp;gt;&amp;gt;n;" style="rounded=0;whiteSpace=wrap;html=1;" vertex="1" parent="1">
          <mxGeometry x="460" y="950" width="120" height="60" as="geometry" />
        </mxCell>
        <mxCell id="Qzv4NTKDpiM6r3iTXVnp-29" style="edgeStyle=orthogonalEdgeStyle;rounded=0;orthogonalLoop=1;jettySize=auto;html=1;" edge="1" parent="1" source="Qzv4NTKDpiM6r3iTXVnp-15" target="Qzv4NTKDpiM6r3iTXVnp-16">
          <mxGeometry relative="1" as="geometry" />
        </mxCell>
        <mxCell id="Qzv4NTKDpiM6r3iTXVnp-15" value="for (int i=1;i&amp;lt;=n;i++)" style="shape=hexagon;perimeter=hexagonPerimeter2;whiteSpace=wrap;html=1;fixedSize=1;" vertex="1" parent="1">
          <mxGeometry x="460" y="1040" width="120" height="80" as="geometry" />
        </mxCell>
        <mxCell id="Qzv4NTKDpiM6r3iTXVnp-16" value="&lt;div style=&quot;background-color: rgb(255, 255, 255); font-family: Consolas, &amp;quot;Courier New&amp;quot;, monospace; line-height: 19px; white-space: pre;&quot;&gt;&lt;font&gt;s=s+pow((-1),i)*cos(i*x)/pow(i,2);&lt;/font&gt;&lt;/div&gt;" style="rounded=0;whiteSpace=wrap;html=1;" vertex="1" parent="1">
          <mxGeometry x="405" y="1140" width="230" height="90" as="geometry" />
        </mxCell>
        <mxCell id="Qzv4NTKDpiM6r3iTXVnp-24" value="" style="endArrow=none;html=1;rounded=0;" edge="1" parent="1">
          <mxGeometry width="50" height="50" relative="1" as="geometry">
            <mxPoint x="520" y="1320" as="sourcePoint" />
            <mxPoint x="520" y="1230" as="targetPoint" />
          </mxGeometry>
        </mxCell>
        <mxCell id="Qzv4NTKDpiM6r3iTXVnp-25" value="" style="endArrow=none;html=1;rounded=0;" edge="1" parent="1">
          <mxGeometry width="50" height="50" relative="1" as="geometry">
            <mxPoint x="250" y="1320" as="sourcePoint" />
            <mxPoint x="520" y="1320" as="targetPoint" />
          </mxGeometry>
        </mxCell>
        <mxCell id="Qzv4NTKDpiM6r3iTXVnp-26" value="" style="endArrow=none;html=1;rounded=0;" edge="1" parent="1">
          <mxGeometry width="50" height="50" relative="1" as="geometry">
            <mxPoint x="250" y="1320" as="sourcePoint" />
            <mxPoint x="250" y="1080" as="targetPoint" />
          </mxGeometry>
        </mxCell>
        <mxCell id="Qzv4NTKDpiM6r3iTXVnp-27" value="" style="endArrow=classic;html=1;rounded=0;entryX=0;entryY=0.5;entryDx=0;entryDy=0;" edge="1" parent="1" target="Qzv4NTKDpiM6r3iTXVnp-15">
          <mxGeometry width="50" height="50" relative="1" as="geometry">
            <mxPoint x="250" y="1080" as="sourcePoint" />
            <mxPoint x="300" y="1030" as="targetPoint" />
          </mxGeometry>
        </mxCell>
        <mxCell id="Qzv4NTKDpiM6r3iTXVnp-38" value="" style="endArrow=none;html=1;rounded=0;" edge="1" parent="1">
          <mxGeometry width="50" height="50" relative="1" as="geometry">
            <mxPoint x="580" y="1080" as="sourcePoint" />
            <mxPoint x="720" y="1080" as="targetPoint" />
          </mxGeometry>
        </mxCell>
        <mxCell id="Qzv4NTKDpiM6r3iTXVnp-39" value="1" style="text;html=1;align=center;verticalAlign=middle;resizable=0;points=[];autosize=1;strokeColor=none;fillColor=none;" vertex="1" parent="1">
          <mxGeometry x="515" y="1118" width="30" height="30" as="geometry" />
        </mxCell>
        <mxCell id="Qzv4NTKDpiM6r3iTXVnp-40" value="0" style="text;html=1;align=center;verticalAlign=middle;resizable=0;points=[];autosize=1;strokeColor=none;fillColor=none;" vertex="1" parent="1">
          <mxGeometry x="585" y="1058" width="30" height="30" as="geometry" />
        </mxCell>
        <mxCell id="Qzv4NTKDpiM6r3iTXVnp-41" value="{" style="text;html=1;align=center;verticalAlign=middle;resizable=0;points=[];autosize=1;strokeColor=none;fillColor=none;" vertex="1" parent="1">
          <mxGeometry x="525" y="388" width="30" height="30" as="geometry" />
        </mxCell>
        <mxCell id="Qzv4NTKDpiM6r3iTXVnp-42" value="{" style="text;html=1;align=center;verticalAlign=middle;resizable=0;points=[];autosize=1;strokeColor=none;fillColor=none;" vertex="1" parent="1">
          <mxGeometry x="575" y="1108" width="30" height="30" as="geometry" />
        </mxCell>
        <mxCell id="Qzv4NTKDpiM6r3iTXVnp-43" value="}" style="text;html=1;align=center;verticalAlign=middle;resizable=0;points=[];autosize=1;strokeColor=none;fillColor=none;" vertex="1" parent="1">
          <mxGeometry x="535" y="1228" width="30" height="30" as="geometry" />
        </mxCell>
        <mxCell id="Qzv4NTKDpiM6r3iTXVnp-44" value="" style="endArrow=none;html=1;rounded=0;" edge="1" parent="1">
          <mxGeometry width="50" height="50" relative="1" as="geometry">
            <mxPoint x="720" y="1140" as="sourcePoint" />
            <mxPoint x="720" y="1080" as="targetPoint" />
          </mxGeometry>
        </mxCell>
        <mxCell id="Qzv4NTKDpiM6r3iTXVnp-49" style="edgeStyle=orthogonalEdgeStyle;rounded=0;orthogonalLoop=1;jettySize=auto;html=1;entryX=0.5;entryY=0;entryDx=0;entryDy=0;" edge="1" parent="1" source="Qzv4NTKDpiM6r3iTXVnp-45" target="Qzv4NTKDpiM6r3iTXVnp-47">
          <mxGeometry relative="1" as="geometry" />
        </mxCell>
        <mxCell id="Qzv4NTKDpiM6r3iTXVnp-45" value="cout&amp;lt;&amp;lt;s&amp;lt;&amp;lt;endl;" style="rounded=0;whiteSpace=wrap;html=1;" vertex="1" parent="1">
          <mxGeometry x="660" y="1140" width="120" height="60" as="geometry" />
        </mxCell>
        <mxCell id="Qzv4NTKDpiM6r3iTXVnp-50" style="edgeStyle=orthogonalEdgeStyle;rounded=0;orthogonalLoop=1;jettySize=auto;html=1;entryX=0.5;entryY=0;entryDx=0;entryDy=0;" edge="1" parent="1" source="Qzv4NTKDpiM6r3iTXVnp-47" target="Qzv4NTKDpiM6r3iTXVnp-48">
          <mxGeometry relative="1" as="geometry" />
        </mxCell>
        <mxCell id="Qzv4NTKDpiM6r3iTXVnp-47" value="cout&amp;lt;&amp;lt;clock();" style="rounded=0;whiteSpace=wrap;html=1;" vertex="1" parent="1">
          <mxGeometry x="660" y="1250" width="120" height="60" as="geometry" />
        </mxCell>
        <mxCell id="Qzv4NTKDpiM6r3iTXVnp-48" value="return 0;" style="ellipse;whiteSpace=wrap;html=1;" vertex="1" parent="1">
          <mxGeometry x="660" y="1330" width="120" height="80" as="geometry" />
        </mxCell>
        <mxCell id="Qzv4NTKDpiM6r3iTXVnp-51" value="}" style="text;html=1;align=center;verticalAlign=middle;resizable=0;points=[];autosize=1;strokeColor=none;fillColor=none;" vertex="1" parent="1">
          <mxGeometry x="735" y="1408" width="30" height="30" as="geometry" />
        </mxCell>
      </root>
    </mxGraphModel>
  </diagram>
</mxfile>
